G75*
G70*
%OFA0B0*%
%FSLAX24Y24*%
%IPPOS*%
%LPD*%
%AMOC8*
5,1,8,0,0,1.08239X$1,22.5*
%
%ADD10R,0.0256X0.0110*%
%ADD11R,0.0110X0.0256*%
%ADD12R,0.0630X0.0709*%
%ADD13R,0.0709X0.0630*%
%ADD14R,0.0472X0.0315*%
%ADD15R,0.0433X0.0394*%
%ADD16R,0.0740X0.0740*%
%ADD17C,0.0740*%
%ADD18C,0.0120*%
%ADD19C,0.0278*%
%ADD20C,0.0160*%
D10*
X002573Y002412D03*
X002573Y002609D03*
X002573Y002806D03*
X002573Y003003D03*
X003652Y003003D03*
X003652Y002806D03*
X003652Y002609D03*
X003652Y002412D03*
D11*
X003408Y002168D03*
X003211Y002168D03*
X003014Y002168D03*
X002817Y002168D03*
X002817Y003247D03*
X003014Y003247D03*
X003211Y003247D03*
X003408Y003247D03*
D12*
X003219Y001101D03*
X004321Y001101D03*
D13*
X004800Y002562D03*
X004800Y003664D03*
D14*
X001536Y002837D03*
X001536Y002129D03*
D15*
X001665Y004101D03*
X002335Y004101D03*
X003065Y004101D03*
X003735Y004101D03*
D16*
X001800Y005101D03*
D17*
X002800Y005101D03*
X003800Y005101D03*
X004800Y005101D03*
D18*
X003800Y005101D02*
X003065Y004366D01*
X003065Y004101D01*
X002817Y003784D01*
X002817Y003247D01*
X002573Y003003D02*
X002257Y003003D01*
X002099Y003160D01*
X002099Y003672D01*
X002342Y003914D01*
X002335Y004101D01*
X002800Y004559D01*
X002800Y005101D01*
X001800Y005101D02*
X001800Y004229D01*
X001537Y003966D01*
X001536Y002837D01*
X002086Y002835D01*
X002087Y002836D01*
X002117Y002806D01*
X002573Y002806D01*
X002105Y002806D01*
X002100Y002801D01*
X002100Y002601D01*
X002300Y002401D01*
X002562Y002401D01*
X002573Y002412D01*
X003408Y002168D02*
X003408Y001290D01*
X003219Y001101D01*
X004321Y001101D02*
X005300Y001101D01*
X005472Y001273D01*
X005472Y002993D01*
X005354Y003111D01*
X004094Y003111D01*
X003986Y003003D01*
X003652Y003003D01*
X003652Y002806D02*
X004183Y002806D01*
X004213Y002836D01*
X004006Y002609D02*
X004094Y002521D01*
X004762Y002521D01*
X004800Y002562D01*
X004116Y002206D02*
X003909Y002412D01*
X003652Y002412D01*
X003652Y002609D02*
X004006Y002609D01*
X003408Y003247D02*
X003408Y003706D01*
X003365Y003662D01*
X003110Y003662D01*
X003408Y003706D02*
X003735Y004101D01*
X004213Y003623D02*
X004252Y003662D01*
X004764Y003662D01*
X004765Y003664D01*
X004800Y003664D01*
X001800Y004229D02*
X001665Y004101D01*
D19*
X002087Y002836D03*
X003110Y003662D03*
X004213Y003623D03*
X004213Y002836D03*
D20*
X000480Y000481D02*
X000480Y006121D01*
X006120Y006121D01*
X006120Y000481D01*
X000480Y000481D01*
X000480Y000518D02*
X006120Y000518D01*
X006120Y000676D02*
X004816Y000676D01*
X004816Y000672D02*
X004711Y000567D01*
X003932Y000567D01*
X003826Y000672D01*
X003826Y001530D01*
X003932Y001635D01*
X004711Y001635D01*
X004816Y001530D01*
X004816Y001341D01*
X005201Y001341D01*
X005232Y001373D01*
X005232Y002070D01*
X005229Y002067D01*
X004371Y002067D01*
X004266Y002172D01*
X004266Y002281D01*
X004047Y002281D01*
X003959Y002317D01*
X003956Y002319D01*
X003948Y002287D01*
X003943Y002280D01*
X003943Y002002D01*
X003809Y001867D01*
X003648Y001867D01*
X003648Y001596D01*
X003714Y001530D01*
X003714Y000672D01*
X003608Y000567D01*
X002829Y000567D01*
X002724Y000672D01*
X002724Y001530D01*
X002829Y001635D01*
X003168Y001635D01*
X003168Y001860D01*
X002688Y001860D01*
X002681Y001867D01*
X002398Y001867D01*
X002263Y002002D01*
X002263Y002161D01*
X002252Y002161D01*
X002164Y002198D01*
X002097Y002265D01*
X001897Y002465D01*
X001872Y002525D01*
X001847Y002500D01*
X001225Y002500D01*
X001120Y002605D01*
X001120Y003069D01*
X001225Y003175D01*
X001296Y003175D01*
X001297Y003802D01*
X001269Y003830D01*
X001269Y004372D01*
X001374Y004478D01*
X001560Y004478D01*
X001560Y004551D01*
X001355Y004551D01*
X001250Y004656D01*
X001250Y005546D01*
X001355Y005651D01*
X002245Y005651D01*
X002350Y005546D01*
X002350Y005429D01*
X002488Y005567D01*
X002691Y005651D01*
X002909Y005651D01*
X003112Y005567D01*
X003266Y005413D01*
X003300Y005331D01*
X003334Y005413D01*
X003488Y005567D01*
X003691Y005651D01*
X003909Y005651D01*
X004112Y005567D01*
X004266Y005413D01*
X004300Y005331D01*
X004330Y005389D01*
X004380Y005459D01*
X004442Y005521D01*
X004512Y005571D01*
X004589Y005611D01*
X004671Y005637D01*
X004757Y005651D01*
X004780Y005651D01*
X004780Y005121D01*
X004820Y005121D01*
X004820Y005651D01*
X004843Y005651D01*
X004929Y005637D01*
X005011Y005611D01*
X005088Y005571D01*
X005158Y005521D01*
X005220Y005459D01*
X005270Y005389D01*
X005310Y005312D01*
X005336Y005230D01*
X005350Y005144D01*
X005350Y005121D01*
X004820Y005121D01*
X004820Y005081D01*
X005350Y005081D01*
X005350Y005058D01*
X005336Y004972D01*
X005310Y004890D01*
X005270Y004813D01*
X005220Y004743D01*
X005158Y004681D01*
X005088Y004631D01*
X005011Y004591D01*
X004929Y004565D01*
X004843Y004551D01*
X004820Y004551D01*
X004820Y005081D01*
X004780Y005081D01*
X004780Y004551D01*
X004757Y004551D01*
X004671Y004565D01*
X004589Y004591D01*
X004512Y004631D01*
X004442Y004681D01*
X004380Y004743D01*
X004330Y004813D01*
X004300Y004871D01*
X004266Y004789D01*
X004112Y004635D01*
X003909Y004551D01*
X003691Y004551D01*
X003619Y004581D01*
X003516Y004478D01*
X004026Y004478D01*
X004131Y004372D01*
X004131Y003830D01*
X004026Y003724D01*
X003734Y003724D01*
X003648Y003619D01*
X003648Y003587D01*
X003809Y003587D01*
X003943Y003452D01*
X003943Y003300D01*
X003959Y003315D01*
X004047Y003351D01*
X004266Y003351D01*
X004266Y003586D01*
X004723Y003586D01*
X004723Y003741D01*
X004266Y003741D01*
X004266Y004003D01*
X004278Y004048D01*
X004302Y004089D01*
X004335Y004123D01*
X004376Y004147D01*
X004422Y004159D01*
X004723Y004159D01*
X004723Y003741D01*
X004877Y003741D01*
X004877Y004159D01*
X005178Y004159D01*
X005224Y004147D01*
X005265Y004123D01*
X005298Y004089D01*
X005322Y004048D01*
X005334Y004003D01*
X005334Y003741D01*
X004877Y003741D01*
X004877Y003586D01*
X005334Y003586D01*
X005334Y003351D01*
X005402Y003351D01*
X005490Y003315D01*
X005608Y003197D01*
X005676Y003129D01*
X005712Y003041D01*
X005712Y001226D01*
X005676Y001137D01*
X005608Y001070D01*
X005436Y000898D01*
X005348Y000861D01*
X004816Y000861D01*
X004816Y000672D01*
X004816Y000835D02*
X006120Y000835D01*
X006120Y000993D02*
X005532Y000993D01*
X005682Y001152D02*
X006120Y001152D01*
X006120Y001310D02*
X005712Y001310D01*
X005712Y001469D02*
X006120Y001469D01*
X006120Y001627D02*
X005712Y001627D01*
X005712Y001786D02*
X006120Y001786D01*
X006120Y001944D02*
X005712Y001944D01*
X005712Y002103D02*
X006120Y002103D01*
X006120Y002261D02*
X005712Y002261D01*
X005712Y002420D02*
X006120Y002420D01*
X006120Y002578D02*
X005712Y002578D01*
X005712Y002737D02*
X006120Y002737D01*
X006120Y002895D02*
X005712Y002895D01*
X005707Y003054D02*
X006120Y003054D01*
X006120Y003212D02*
X005592Y003212D01*
X005334Y003371D02*
X006120Y003371D01*
X006120Y003529D02*
X005334Y003529D01*
X005334Y003846D02*
X006120Y003846D01*
X006120Y004005D02*
X005334Y004005D01*
X004877Y004005D02*
X004723Y004005D01*
X004723Y003846D02*
X004877Y003846D01*
X004877Y003688D02*
X006120Y003688D01*
X006120Y004163D02*
X004131Y004163D01*
X004131Y004322D02*
X006120Y004322D01*
X006120Y004480D02*
X003519Y004480D01*
X004116Y004639D02*
X004500Y004639D01*
X004341Y004797D02*
X004270Y004797D01*
X004780Y004797D02*
X004820Y004797D01*
X004820Y004639D02*
X004780Y004639D01*
X004780Y004956D02*
X004820Y004956D01*
X004820Y005114D02*
X006120Y005114D01*
X006120Y004956D02*
X005331Y004956D01*
X005259Y004797D02*
X006120Y004797D01*
X006120Y004639D02*
X005100Y004639D01*
X005322Y005273D02*
X006120Y005273D01*
X006120Y005431D02*
X005240Y005431D01*
X005052Y005590D02*
X006120Y005590D01*
X006120Y005748D02*
X000480Y005748D01*
X000480Y005907D02*
X006120Y005907D01*
X006120Y006065D02*
X000480Y006065D01*
X000480Y005590D02*
X001294Y005590D01*
X001250Y005431D02*
X000480Y005431D01*
X000480Y005273D02*
X001250Y005273D01*
X001250Y005114D02*
X000480Y005114D01*
X000480Y004956D02*
X001250Y004956D01*
X001250Y004797D02*
X000480Y004797D01*
X000480Y004639D02*
X001267Y004639D01*
X001560Y004480D02*
X000480Y004480D01*
X000480Y004322D02*
X001269Y004322D01*
X001269Y004163D02*
X000480Y004163D01*
X000480Y004005D02*
X001269Y004005D01*
X001269Y003846D02*
X000480Y003846D01*
X000480Y003688D02*
X001297Y003688D01*
X001297Y003529D02*
X000480Y003529D01*
X000480Y003371D02*
X001297Y003371D01*
X001296Y003212D02*
X000480Y003212D01*
X000480Y003054D02*
X001120Y003054D01*
X001120Y002895D02*
X000480Y002895D01*
X000480Y002737D02*
X001120Y002737D01*
X001147Y002578D02*
X000480Y002578D01*
X000480Y002420D02*
X001179Y002420D01*
X001189Y002430D02*
X001156Y002397D01*
X001132Y002356D01*
X001120Y002310D01*
X001120Y002129D01*
X001536Y002129D01*
X001536Y002466D01*
X001276Y002466D01*
X001231Y002454D01*
X001189Y002430D01*
X001120Y002261D02*
X000480Y002261D01*
X000480Y002103D02*
X001120Y002103D01*
X001120Y002129D02*
X001120Y001947D01*
X001132Y001902D01*
X001156Y001861D01*
X001189Y001827D01*
X001231Y001803D01*
X001276Y001791D01*
X001536Y001791D01*
X001536Y002129D01*
X001536Y002129D01*
X001536Y002129D01*
X001536Y002466D01*
X001796Y002466D01*
X001842Y002454D01*
X001883Y002430D01*
X001916Y002397D01*
X001940Y002356D01*
X001952Y002310D01*
X001952Y002129D01*
X001536Y002129D01*
X001120Y002129D01*
X001121Y001944D02*
X000480Y001944D01*
X000480Y001786D02*
X003168Y001786D01*
X002822Y001627D02*
X000480Y001627D01*
X000480Y001469D02*
X002724Y001469D01*
X002724Y001310D02*
X000480Y001310D01*
X000480Y001152D02*
X002724Y001152D01*
X002724Y000993D02*
X000480Y000993D01*
X000480Y000835D02*
X002724Y000835D01*
X002724Y000676D02*
X000480Y000676D01*
X001536Y001791D02*
X001796Y001791D01*
X001842Y001803D01*
X001883Y001827D01*
X001916Y001861D01*
X001940Y001902D01*
X001952Y001947D01*
X001952Y002129D01*
X001536Y002129D01*
X001536Y002129D01*
X001536Y002129D01*
X001536Y001791D01*
X001536Y001944D02*
X001536Y001944D01*
X001536Y002103D02*
X001536Y002103D01*
X001536Y002261D02*
X001536Y002261D01*
X001536Y002420D02*
X001536Y002420D01*
X001893Y002420D02*
X001942Y002420D01*
X001952Y002261D02*
X002100Y002261D01*
X001952Y002103D02*
X002263Y002103D01*
X002320Y001944D02*
X001952Y001944D01*
X003648Y001786D02*
X005232Y001786D01*
X005232Y001944D02*
X003886Y001944D01*
X003943Y002103D02*
X004335Y002103D01*
X004266Y002261D02*
X003943Y002261D01*
X004194Y002761D02*
X004142Y002812D01*
X004137Y002814D01*
X004194Y002871D01*
X004266Y002871D01*
X004266Y002761D01*
X004194Y002761D01*
X004266Y003371D02*
X003943Y003371D01*
X003866Y003529D02*
X004266Y003529D01*
X004266Y003846D02*
X004131Y003846D01*
X004131Y004005D02*
X004266Y004005D01*
X004723Y003688D02*
X003705Y003688D01*
X004780Y005273D02*
X004820Y005273D01*
X004820Y005431D02*
X004780Y005431D01*
X004780Y005590D02*
X004820Y005590D01*
X004548Y005590D02*
X004057Y005590D01*
X004247Y005431D02*
X004360Y005431D01*
X003543Y005590D02*
X003057Y005590D01*
X003247Y005431D02*
X003353Y005431D01*
X002543Y005590D02*
X002306Y005590D01*
X002350Y005431D02*
X002353Y005431D01*
X003648Y001627D02*
X003924Y001627D01*
X003826Y001469D02*
X003714Y001469D01*
X003714Y001310D02*
X003826Y001310D01*
X003826Y001152D02*
X003714Y001152D01*
X003714Y000993D02*
X003826Y000993D01*
X003826Y000835D02*
X003714Y000835D01*
X003714Y000676D02*
X003826Y000676D01*
X004719Y001627D02*
X005232Y001627D01*
X005232Y001469D02*
X004816Y001469D01*
M02*
