G75*
G70*
%OFA0B0*%
%FSLAX24Y24*%
%IPPOS*%
%LPD*%
%AMOC8*
5,1,8,0,0,1.08239X$1,22.5*
%
%ADD10R,0.0740X0.0740*%
%ADD11C,0.0740*%
%ADD12C,0.0278*%
%ADD13C,0.0120*%
%ADD14C,0.0160*%
D10*
X001800Y005101D03*
D11*
X002800Y005101D03*
X003800Y005101D03*
X004800Y005101D03*
D12*
X004213Y003623D03*
X004213Y002836D03*
X003110Y003662D03*
X002087Y002836D03*
D13*
X002087Y003505D01*
X002244Y003662D01*
X003110Y003662D01*
X004213Y003623D02*
X004213Y003662D01*
X004213Y003623D02*
X004213Y002836D01*
D14*
X000480Y000481D02*
X000480Y006121D01*
X006120Y006121D01*
X006120Y000481D01*
X000480Y000481D01*
X000480Y000518D02*
X006120Y000518D01*
X006120Y000676D02*
X000480Y000676D01*
X000480Y000835D02*
X006120Y000835D01*
X006120Y000993D02*
X000480Y000993D01*
X000480Y001152D02*
X006120Y001152D01*
X006120Y001310D02*
X000480Y001310D01*
X000480Y001469D02*
X006120Y001469D01*
X006120Y001627D02*
X000480Y001627D01*
X000480Y001786D02*
X006120Y001786D01*
X006120Y001944D02*
X004011Y001944D01*
X004020Y001954D02*
X003947Y001881D01*
X003852Y001841D01*
X003748Y001841D01*
X002452Y001841D01*
X002348Y001841D01*
X002253Y001881D01*
X002180Y001954D01*
X002140Y002049D01*
X002140Y002517D01*
X002023Y002517D01*
X001906Y002565D01*
X001816Y002655D01*
X001768Y002772D01*
X001768Y002899D01*
X001816Y003016D01*
X001847Y003047D01*
X001847Y003553D01*
X001883Y003641D01*
X002041Y003798D01*
X002108Y003866D01*
X002196Y003902D01*
X002899Y003902D01*
X002930Y003933D01*
X003047Y003981D01*
X003174Y003981D01*
X003291Y003933D01*
X003381Y003843D01*
X003429Y003726D01*
X003429Y003661D01*
X003852Y003661D01*
X003894Y003644D01*
X003894Y003686D01*
X003942Y003804D01*
X004032Y003894D01*
X004149Y003942D01*
X004276Y003942D01*
X004393Y003894D01*
X004483Y003804D01*
X004532Y003686D01*
X004532Y003560D01*
X004483Y003442D01*
X004453Y003412D01*
X004453Y003047D01*
X004483Y003016D01*
X004532Y002899D01*
X004532Y002772D01*
X004483Y002655D01*
X004393Y002565D01*
X004276Y002517D01*
X004149Y002517D01*
X004060Y002554D01*
X004060Y002049D01*
X004020Y001954D01*
X004060Y002103D02*
X006120Y002103D01*
X006120Y002261D02*
X004060Y002261D01*
X004060Y002420D02*
X006120Y002420D01*
X006120Y002578D02*
X004407Y002578D01*
X004517Y002737D02*
X006120Y002737D01*
X006120Y002895D02*
X004532Y002895D01*
X004453Y003054D02*
X006120Y003054D01*
X006120Y003212D02*
X004453Y003212D01*
X004453Y003371D02*
X006120Y003371D01*
X006120Y003529D02*
X004519Y003529D01*
X004531Y003688D02*
X006120Y003688D01*
X006120Y003846D02*
X004440Y003846D01*
X003985Y003846D02*
X003377Y003846D01*
X003429Y003688D02*
X003894Y003688D01*
X003909Y004551D02*
X003691Y004551D01*
X003488Y004635D01*
X003334Y004789D01*
X003300Y004871D01*
X003266Y004789D01*
X003112Y004635D01*
X002909Y004551D01*
X002691Y004551D01*
X002488Y004635D01*
X002350Y004773D01*
X002350Y004656D01*
X002245Y004551D01*
X001355Y004551D01*
X001250Y004656D01*
X001250Y005546D01*
X001355Y005651D01*
X002245Y005651D01*
X002350Y005546D01*
X002350Y005429D01*
X002488Y005567D01*
X002691Y005651D01*
X002909Y005651D01*
X003112Y005567D01*
X003266Y005413D01*
X003300Y005331D01*
X003334Y005413D01*
X003488Y005567D01*
X003691Y005651D01*
X003909Y005651D01*
X004112Y005567D01*
X004266Y005413D01*
X004300Y005331D01*
X004334Y005413D01*
X004488Y005567D01*
X004691Y005651D01*
X004909Y005651D01*
X005112Y005567D01*
X005266Y005413D01*
X005350Y005210D01*
X005350Y004992D01*
X005266Y004789D01*
X005112Y004635D01*
X004909Y004551D01*
X004691Y004551D01*
X004488Y004635D01*
X004334Y004789D01*
X004300Y004871D01*
X004266Y004789D01*
X004112Y004635D01*
X003909Y004551D01*
X004116Y004639D02*
X004484Y004639D01*
X004330Y004797D02*
X004270Y004797D01*
X004247Y005431D02*
X004353Y005431D01*
X004543Y005590D02*
X004057Y005590D01*
X003543Y005590D02*
X003057Y005590D01*
X003247Y005431D02*
X003353Y005431D01*
X003330Y004797D02*
X003270Y004797D01*
X003116Y004639D02*
X003484Y004639D01*
X002543Y005590D02*
X002306Y005590D01*
X002350Y005431D02*
X002353Y005431D01*
X002333Y004639D02*
X002484Y004639D01*
X002089Y003846D02*
X000480Y003846D01*
X000480Y004005D02*
X006120Y004005D01*
X006120Y004163D02*
X000480Y004163D01*
X000480Y004322D02*
X006120Y004322D01*
X006120Y004480D02*
X000480Y004480D01*
X000480Y004639D02*
X001267Y004639D01*
X001250Y004797D02*
X000480Y004797D01*
X000480Y004956D02*
X001250Y004956D01*
X001250Y005114D02*
X000480Y005114D01*
X000480Y005273D02*
X001250Y005273D01*
X001250Y005431D02*
X000480Y005431D01*
X000480Y005590D02*
X001294Y005590D01*
X000480Y005748D02*
X006120Y005748D01*
X006120Y005907D02*
X000480Y005907D01*
X000480Y006065D02*
X006120Y006065D01*
X006120Y005590D02*
X005057Y005590D01*
X005247Y005431D02*
X006120Y005431D01*
X006120Y005273D02*
X005324Y005273D01*
X005350Y005114D02*
X006120Y005114D01*
X006120Y004956D02*
X005335Y004956D01*
X005270Y004797D02*
X006120Y004797D01*
X006120Y004639D02*
X005116Y004639D01*
X002189Y001944D02*
X000480Y001944D01*
X000480Y002103D02*
X002140Y002103D01*
X002140Y002261D02*
X000480Y002261D01*
X000480Y002420D02*
X002140Y002420D01*
X001893Y002578D02*
X000480Y002578D01*
X000480Y002737D02*
X001782Y002737D01*
X001768Y002895D02*
X000480Y002895D01*
X000480Y003054D02*
X001847Y003054D01*
X001847Y003212D02*
X000480Y003212D01*
X000480Y003371D02*
X001847Y003371D01*
X001847Y003529D02*
X000480Y003529D01*
X000480Y003688D02*
X001930Y003688D01*
M02*
