G75*
G70*
%OFA0B0*%
%FSLAX24Y24*%
%IPPOS*%
%LPD*%
%AMOC8*
5,1,8,0,0,1.08239X$1,22.5*
%
%ADD10C,0.0000*%
%ADD11C,0.0080*%
%ADD12C,0.0040*%
%ADD13C,0.0060*%
D10*
X000300Y000160D02*
X000300Y009160D01*
X009300Y009160D01*
X009300Y000160D01*
X000300Y000160D01*
X007300Y001560D02*
X007302Y001609D01*
X007308Y001657D01*
X007318Y001705D01*
X007332Y001752D01*
X007349Y001798D01*
X007370Y001842D01*
X007395Y001884D01*
X007423Y001924D01*
X007455Y001962D01*
X007489Y001997D01*
X007526Y002029D01*
X007565Y002058D01*
X007607Y002084D01*
X007651Y002106D01*
X007696Y002124D01*
X007743Y002139D01*
X007790Y002150D01*
X007839Y002157D01*
X007888Y002160D01*
X007937Y002159D01*
X007985Y002154D01*
X008034Y002145D01*
X008081Y002132D01*
X008127Y002115D01*
X008171Y002095D01*
X008214Y002071D01*
X008255Y002044D01*
X008293Y002013D01*
X008329Y001980D01*
X008361Y001944D01*
X008391Y001905D01*
X008418Y001864D01*
X008441Y001820D01*
X008460Y001775D01*
X008476Y001729D01*
X008488Y001682D01*
X008496Y001633D01*
X008500Y001584D01*
X008500Y001536D01*
X008496Y001487D01*
X008488Y001438D01*
X008476Y001391D01*
X008460Y001345D01*
X008441Y001300D01*
X008418Y001256D01*
X008391Y001215D01*
X008361Y001176D01*
X008329Y001140D01*
X008293Y001107D01*
X008255Y001076D01*
X008214Y001049D01*
X008171Y001025D01*
X008127Y001005D01*
X008081Y000988D01*
X008034Y000975D01*
X007985Y000966D01*
X007937Y000961D01*
X007888Y000960D01*
X007839Y000963D01*
X007790Y000970D01*
X007743Y000981D01*
X007696Y000996D01*
X007651Y001014D01*
X007607Y001036D01*
X007565Y001062D01*
X007526Y001091D01*
X007489Y001123D01*
X007455Y001158D01*
X007423Y001196D01*
X007395Y001236D01*
X007370Y001278D01*
X007349Y001322D01*
X007332Y001368D01*
X007318Y001415D01*
X007308Y001463D01*
X007302Y001511D01*
X007300Y001560D01*
X007300Y007760D02*
X007302Y007809D01*
X007308Y007857D01*
X007318Y007905D01*
X007332Y007952D01*
X007349Y007998D01*
X007370Y008042D01*
X007395Y008084D01*
X007423Y008124D01*
X007455Y008162D01*
X007489Y008197D01*
X007526Y008229D01*
X007565Y008258D01*
X007607Y008284D01*
X007651Y008306D01*
X007696Y008324D01*
X007743Y008339D01*
X007790Y008350D01*
X007839Y008357D01*
X007888Y008360D01*
X007937Y008359D01*
X007985Y008354D01*
X008034Y008345D01*
X008081Y008332D01*
X008127Y008315D01*
X008171Y008295D01*
X008214Y008271D01*
X008255Y008244D01*
X008293Y008213D01*
X008329Y008180D01*
X008361Y008144D01*
X008391Y008105D01*
X008418Y008064D01*
X008441Y008020D01*
X008460Y007975D01*
X008476Y007929D01*
X008488Y007882D01*
X008496Y007833D01*
X008500Y007784D01*
X008500Y007736D01*
X008496Y007687D01*
X008488Y007638D01*
X008476Y007591D01*
X008460Y007545D01*
X008441Y007500D01*
X008418Y007456D01*
X008391Y007415D01*
X008361Y007376D01*
X008329Y007340D01*
X008293Y007307D01*
X008255Y007276D01*
X008214Y007249D01*
X008171Y007225D01*
X008127Y007205D01*
X008081Y007188D01*
X008034Y007175D01*
X007985Y007166D01*
X007937Y007161D01*
X007888Y007160D01*
X007839Y007163D01*
X007790Y007170D01*
X007743Y007181D01*
X007696Y007196D01*
X007651Y007214D01*
X007607Y007236D01*
X007565Y007262D01*
X007526Y007291D01*
X007489Y007323D01*
X007455Y007358D01*
X007423Y007396D01*
X007395Y007436D01*
X007370Y007478D01*
X007349Y007522D01*
X007332Y007568D01*
X007318Y007615D01*
X007308Y007663D01*
X007302Y007711D01*
X007300Y007760D01*
D11*
X003500Y005160D02*
X003500Y004160D01*
X003498Y004143D01*
X003494Y004126D01*
X003487Y004110D01*
X003477Y004096D01*
X003464Y004083D01*
X003450Y004073D01*
X003434Y004066D01*
X003417Y004062D01*
X003400Y004060D01*
X002800Y004060D01*
X002783Y004062D01*
X002766Y004066D01*
X002750Y004073D01*
X002736Y004083D01*
X002723Y004096D01*
X002713Y004110D01*
X002706Y004126D01*
X002702Y004143D01*
X002700Y004160D01*
X002700Y005160D01*
X002702Y005177D01*
X002706Y005194D01*
X002713Y005210D01*
X002723Y005224D01*
X002736Y005237D01*
X002750Y005247D01*
X002766Y005254D01*
X002783Y005258D01*
X002800Y005260D01*
X003400Y005260D01*
X003417Y005258D01*
X003434Y005254D01*
X003450Y005247D01*
X003464Y005237D01*
X003477Y005224D01*
X003487Y005210D01*
X003494Y005194D01*
X003498Y005177D01*
X003500Y005160D01*
D12*
X003347Y005460D02*
X003280Y005460D01*
X003247Y005493D01*
X003247Y005660D01*
X003159Y005593D02*
X003059Y005593D01*
X003026Y005560D01*
X003026Y005493D01*
X003059Y005460D01*
X003159Y005460D01*
X003159Y005393D02*
X003159Y005593D01*
X003126Y005760D02*
X003026Y005760D01*
X003026Y005893D01*
X002938Y005960D02*
X002905Y005960D01*
X002905Y005760D01*
X002938Y005760D02*
X002871Y005760D01*
X002791Y005760D02*
X002724Y005760D01*
X002757Y005760D02*
X002757Y005960D01*
X002791Y005960D01*
X002805Y005593D02*
X002905Y005593D01*
X002938Y005560D01*
X002905Y005527D01*
X002838Y005527D01*
X002805Y005493D01*
X002838Y005460D01*
X002938Y005460D01*
X003126Y005760D02*
X003159Y005793D01*
X003159Y005893D01*
X003247Y005860D02*
X003247Y005927D01*
X003280Y005960D01*
X003380Y005960D01*
X003380Y005760D01*
X003380Y005827D02*
X003280Y005827D01*
X003247Y005860D01*
X003380Y005660D02*
X003380Y005493D01*
X003347Y005460D01*
D13*
X002370Y005540D02*
X002320Y005490D01*
X002220Y005490D01*
X002170Y005540D01*
X002170Y005590D01*
X002220Y005640D01*
X002320Y005640D01*
X002370Y005690D01*
X002370Y005740D01*
X002320Y005790D01*
X002220Y005790D01*
X002170Y005740D01*
X002039Y005790D02*
X001888Y005790D01*
X001838Y005740D01*
X001838Y005540D01*
X001888Y005490D01*
X002039Y005490D01*
X002039Y005790D01*
X001707Y005690D02*
X001607Y005790D01*
X001507Y005690D01*
X001507Y005490D01*
X001707Y005490D02*
X001707Y005690D01*
X001707Y005640D02*
X001507Y005640D01*
X001641Y006490D02*
X001541Y006590D01*
X001541Y006790D01*
X001741Y006790D02*
X001741Y006590D01*
X001641Y006490D01*
X001873Y006540D02*
X001923Y006490D01*
X002023Y006490D01*
X002073Y006540D01*
X002188Y006540D02*
X002188Y006490D01*
X002239Y006490D01*
X002239Y006540D01*
X002188Y006540D01*
X001973Y006640D02*
X001923Y006640D01*
X001873Y006590D01*
X001873Y006540D01*
X001923Y006640D02*
X001873Y006690D01*
X001873Y006740D01*
X001923Y006790D01*
X002023Y006790D01*
X002073Y006740D01*
X002370Y006740D02*
X002370Y006690D01*
X002420Y006640D01*
X002370Y006590D01*
X002370Y006540D01*
X002420Y006490D01*
X002520Y006490D01*
X002570Y006540D01*
X002470Y006640D02*
X002420Y006640D01*
X002370Y006740D02*
X002420Y006790D01*
X002520Y006790D01*
X002570Y006740D01*
X002320Y004790D02*
X002370Y004740D01*
X002370Y004690D01*
X002320Y004640D01*
X002220Y004640D01*
X002170Y004590D01*
X002170Y004540D01*
X002220Y004490D01*
X002320Y004490D01*
X002370Y004540D01*
X002320Y004790D02*
X002220Y004790D01*
X002170Y004740D01*
X002039Y004740D02*
X002039Y004540D01*
X001988Y004490D01*
X001888Y004490D01*
X001838Y004540D01*
X001707Y004490D02*
X001507Y004490D01*
X001707Y004490D02*
X001707Y004790D01*
X001838Y004740D02*
X001888Y004790D01*
X001988Y004790D01*
X002039Y004740D01*
X002007Y003790D02*
X001857Y003790D01*
X001807Y003740D01*
X001807Y003540D01*
X001857Y003490D01*
X002007Y003490D01*
X002007Y003790D01*
X002138Y003740D02*
X002138Y003640D01*
X002188Y003590D01*
X002339Y003590D01*
X002339Y003490D02*
X002339Y003790D01*
X002188Y003790D01*
X002138Y003740D01*
X002238Y003590D02*
X002138Y003490D01*
X002470Y003540D02*
X002470Y003740D01*
X002520Y003790D01*
X002670Y003790D01*
X002670Y003490D01*
X002520Y003490D01*
X002470Y003540D01*
X001676Y003740D02*
X001575Y003640D01*
X001575Y003490D01*
X001575Y003640D02*
X001475Y003740D01*
X001475Y003790D01*
X001676Y003790D02*
X001676Y003740D01*
X001707Y002790D02*
X001557Y002790D01*
X001507Y002740D01*
X001507Y002540D01*
X001557Y002490D01*
X001707Y002490D01*
X001707Y002790D01*
X001838Y002790D02*
X001838Y002490D01*
X002039Y002790D01*
X002039Y002490D01*
X002170Y002540D02*
X002170Y002640D01*
X002270Y002640D01*
X002370Y002540D02*
X002320Y002490D01*
X002220Y002490D01*
X002170Y002540D01*
X002370Y002540D02*
X002370Y002740D01*
X002320Y002790D01*
X002220Y002790D01*
X002170Y002740D01*
M02*
