G75*
G70*
%OFA0B0*%
%FSLAX24Y24*%
%IPPOS*%
%LPD*%
%AMOC8*
5,1,8,0,0,1.08239X$1,22.5*
%
%ADD10C,0.0000*%
%ADD11R,0.0740X0.0740*%
%ADD12C,0.0740*%
%ADD13R,0.0500X0.0250*%
%ADD14C,0.0120*%
%ADD15C,0.0300*%
%ADD16C,0.0100*%
%ADD17C,0.0240*%
%ADD18C,0.0360*%
%ADD19C,0.0160*%
D10*
X000300Y000160D02*
X000300Y009160D01*
X009300Y009160D01*
X009300Y000160D01*
X000300Y000160D01*
X007300Y001560D02*
X007302Y001609D01*
X007308Y001657D01*
X007318Y001705D01*
X007332Y001752D01*
X007349Y001798D01*
X007370Y001842D01*
X007395Y001884D01*
X007423Y001924D01*
X007455Y001962D01*
X007489Y001997D01*
X007526Y002029D01*
X007565Y002058D01*
X007607Y002084D01*
X007651Y002106D01*
X007696Y002124D01*
X007743Y002139D01*
X007790Y002150D01*
X007839Y002157D01*
X007888Y002160D01*
X007937Y002159D01*
X007985Y002154D01*
X008034Y002145D01*
X008081Y002132D01*
X008127Y002115D01*
X008171Y002095D01*
X008214Y002071D01*
X008255Y002044D01*
X008293Y002013D01*
X008329Y001980D01*
X008361Y001944D01*
X008391Y001905D01*
X008418Y001864D01*
X008441Y001820D01*
X008460Y001775D01*
X008476Y001729D01*
X008488Y001682D01*
X008496Y001633D01*
X008500Y001584D01*
X008500Y001536D01*
X008496Y001487D01*
X008488Y001438D01*
X008476Y001391D01*
X008460Y001345D01*
X008441Y001300D01*
X008418Y001256D01*
X008391Y001215D01*
X008361Y001176D01*
X008329Y001140D01*
X008293Y001107D01*
X008255Y001076D01*
X008214Y001049D01*
X008171Y001025D01*
X008127Y001005D01*
X008081Y000988D01*
X008034Y000975D01*
X007985Y000966D01*
X007937Y000961D01*
X007888Y000960D01*
X007839Y000963D01*
X007790Y000970D01*
X007743Y000981D01*
X007696Y000996D01*
X007651Y001014D01*
X007607Y001036D01*
X007565Y001062D01*
X007526Y001091D01*
X007489Y001123D01*
X007455Y001158D01*
X007423Y001196D01*
X007395Y001236D01*
X007370Y001278D01*
X007349Y001322D01*
X007332Y001368D01*
X007318Y001415D01*
X007308Y001463D01*
X007302Y001511D01*
X007300Y001560D01*
X007300Y007760D02*
X007302Y007809D01*
X007308Y007857D01*
X007318Y007905D01*
X007332Y007952D01*
X007349Y007998D01*
X007370Y008042D01*
X007395Y008084D01*
X007423Y008124D01*
X007455Y008162D01*
X007489Y008197D01*
X007526Y008229D01*
X007565Y008258D01*
X007607Y008284D01*
X007651Y008306D01*
X007696Y008324D01*
X007743Y008339D01*
X007790Y008350D01*
X007839Y008357D01*
X007888Y008360D01*
X007937Y008359D01*
X007985Y008354D01*
X008034Y008345D01*
X008081Y008332D01*
X008127Y008315D01*
X008171Y008295D01*
X008214Y008271D01*
X008255Y008244D01*
X008293Y008213D01*
X008329Y008180D01*
X008361Y008144D01*
X008391Y008105D01*
X008418Y008064D01*
X008441Y008020D01*
X008460Y007975D01*
X008476Y007929D01*
X008488Y007882D01*
X008496Y007833D01*
X008500Y007784D01*
X008500Y007736D01*
X008496Y007687D01*
X008488Y007638D01*
X008476Y007591D01*
X008460Y007545D01*
X008441Y007500D01*
X008418Y007456D01*
X008391Y007415D01*
X008361Y007376D01*
X008329Y007340D01*
X008293Y007307D01*
X008255Y007276D01*
X008214Y007249D01*
X008171Y007225D01*
X008127Y007205D01*
X008081Y007188D01*
X008034Y007175D01*
X007985Y007166D01*
X007937Y007161D01*
X007888Y007160D01*
X007839Y007163D01*
X007790Y007170D01*
X007743Y007181D01*
X007696Y007196D01*
X007651Y007214D01*
X007607Y007236D01*
X007565Y007262D01*
X007526Y007291D01*
X007489Y007323D01*
X007455Y007358D01*
X007423Y007396D01*
X007395Y007436D01*
X007370Y007478D01*
X007349Y007522D01*
X007332Y007568D01*
X007318Y007615D01*
X007308Y007663D01*
X007302Y007711D01*
X007300Y007760D01*
D11*
X000800Y006660D03*
D12*
X000800Y005660D03*
X000800Y004660D03*
X000800Y003660D03*
X000800Y002660D03*
D13*
X003100Y004310D03*
X003100Y004660D03*
X003100Y005010D03*
D14*
X002690Y005019D02*
X002437Y005019D01*
X002380Y005076D02*
X002380Y006416D01*
X002337Y006519D01*
X002259Y006597D01*
X001959Y006897D01*
X001856Y006940D01*
X001330Y006940D01*
X001330Y007096D01*
X001236Y007190D01*
X000480Y007190D01*
X000480Y008980D01*
X009120Y008980D01*
X009120Y000340D01*
X000480Y000340D01*
X000480Y002237D01*
X000522Y002207D01*
X000597Y002169D01*
X000676Y002143D01*
X000758Y002130D01*
X000760Y002130D01*
X000760Y002620D01*
X000840Y002620D01*
X000840Y002700D01*
X001330Y002700D01*
X001330Y002702D01*
X001317Y002784D01*
X001291Y002863D01*
X001253Y002938D01*
X001204Y003005D01*
X001145Y003064D01*
X001078Y003113D01*
X001003Y003151D01*
X000977Y003160D01*
X001100Y003211D01*
X001249Y003360D01*
X001287Y003450D01*
X001413Y003450D01*
X002513Y002350D01*
X003687Y002350D01*
X004387Y003050D01*
X004460Y003123D01*
X004460Y003008D01*
X004460Y002912D01*
X004497Y002824D01*
X004797Y002524D01*
X004864Y002457D01*
X004952Y002420D01*
X004959Y002420D01*
X005007Y002372D01*
X005132Y002320D01*
X005268Y002320D01*
X005393Y002372D01*
X005488Y002467D01*
X005540Y002592D01*
X005540Y002728D01*
X005488Y002853D01*
X005393Y002948D01*
X005268Y003000D01*
X005132Y003000D01*
X005038Y002961D01*
X004940Y003059D01*
X004940Y004608D01*
X004903Y004696D01*
X004640Y004959D01*
X004640Y005028D01*
X004588Y005153D01*
X004493Y005248D01*
X004368Y005300D01*
X004232Y005300D01*
X004107Y005248D01*
X004012Y005153D01*
X003960Y005028D01*
X003960Y004959D01*
X003901Y004900D01*
X003510Y004900D01*
X003510Y005201D01*
X003416Y005295D01*
X003310Y005295D01*
X003310Y006932D01*
X003363Y006984D01*
X003410Y007098D01*
X003410Y007222D01*
X003363Y007336D01*
X003276Y007423D01*
X003162Y007470D01*
X003038Y007470D01*
X002924Y007423D01*
X002837Y007336D01*
X002790Y007222D01*
X002790Y007098D01*
X002837Y006984D01*
X002890Y006932D01*
X002890Y005295D01*
X002784Y005295D01*
X002690Y005201D01*
X002690Y004940D01*
X002516Y004940D01*
X002380Y005076D01*
X002380Y005137D02*
X002690Y005137D01*
X002744Y005256D02*
X002380Y005256D01*
X002380Y005374D02*
X002890Y005374D01*
X002890Y005493D02*
X002380Y005493D01*
X002380Y005611D02*
X002890Y005611D01*
X002890Y005730D02*
X002380Y005730D01*
X002380Y005848D02*
X002890Y005848D01*
X002890Y005967D02*
X002380Y005967D01*
X002380Y006085D02*
X002890Y006085D01*
X002890Y006204D02*
X002380Y006204D01*
X002380Y006322D02*
X002890Y006322D01*
X002890Y006441D02*
X002370Y006441D01*
X002297Y006559D02*
X002890Y006559D01*
X002890Y006678D02*
X002178Y006678D01*
X002060Y006796D02*
X002890Y006796D01*
X002890Y006915D02*
X001917Y006915D01*
X001330Y007033D02*
X002817Y007033D01*
X002790Y007152D02*
X001275Y007152D01*
X000480Y007270D02*
X002810Y007270D01*
X002890Y007389D02*
X000480Y007389D01*
X000480Y007507D02*
X007000Y007507D01*
X007013Y007437D02*
X007013Y007437D01*
X007177Y007153D01*
X007428Y006942D01*
X007736Y006830D01*
X007817Y006830D01*
X008064Y006830D01*
X008372Y006942D01*
X008372Y006942D01*
X008623Y007153D01*
X008623Y007153D01*
X008787Y007437D01*
X008844Y007760D01*
X008787Y008083D01*
X008623Y008367D01*
X008372Y008578D01*
X008064Y008690D01*
X007736Y008690D01*
X007428Y008578D01*
X007428Y008578D01*
X007177Y008367D01*
X007177Y008367D01*
X007013Y008083D01*
X006956Y007760D01*
X007013Y007437D01*
X007041Y007389D02*
X003310Y007389D01*
X003390Y007270D02*
X007109Y007270D01*
X007177Y007153D02*
X007177Y007153D01*
X007178Y007152D02*
X003410Y007152D01*
X003383Y007033D02*
X007320Y007033D01*
X007428Y006942D02*
X007428Y006942D01*
X007504Y006915D02*
X003310Y006915D01*
X003310Y006796D02*
X009120Y006796D01*
X009120Y006915D02*
X008296Y006915D01*
X008480Y007033D02*
X009120Y007033D01*
X009120Y007152D02*
X008622Y007152D01*
X008623Y007153D02*
X008623Y007153D01*
X008691Y007270D02*
X009120Y007270D01*
X009120Y007389D02*
X008759Y007389D01*
X008787Y007437D02*
X008787Y007437D01*
X008800Y007507D02*
X009120Y007507D01*
X009120Y007626D02*
X008821Y007626D01*
X008842Y007744D02*
X009120Y007744D01*
X009120Y007863D02*
X008826Y007863D01*
X008844Y007760D02*
X008844Y007760D01*
X008805Y007981D02*
X009120Y007981D01*
X009120Y008100D02*
X008778Y008100D01*
X008787Y008083D02*
X008787Y008083D01*
X008709Y008218D02*
X009120Y008218D01*
X009120Y008337D02*
X008641Y008337D01*
X008623Y008367D02*
X008623Y008367D01*
X008519Y008455D02*
X009120Y008455D01*
X009120Y008574D02*
X008377Y008574D01*
X009120Y008692D02*
X000480Y008692D01*
X000480Y008811D02*
X009120Y008811D01*
X009120Y008929D02*
X000480Y008929D01*
X000480Y008574D02*
X007423Y008574D01*
X007281Y008455D02*
X000480Y008455D01*
X000480Y008337D02*
X007159Y008337D01*
X007177Y008367D02*
X007177Y008367D01*
X007091Y008218D02*
X000480Y008218D01*
X000480Y008100D02*
X007022Y008100D01*
X007013Y008083D02*
X007013Y008083D01*
X006995Y007981D02*
X000480Y007981D01*
X000480Y007863D02*
X006974Y007863D01*
X006956Y007760D02*
X006956Y007760D01*
X006958Y007744D02*
X000480Y007744D01*
X000480Y007626D02*
X006979Y007626D01*
X007032Y006500D02*
X006907Y006448D01*
X006859Y006400D01*
X005341Y006400D01*
X005293Y006448D01*
X005168Y006500D01*
X005032Y006500D01*
X004907Y006448D01*
X004812Y006353D01*
X004760Y006228D01*
X004760Y006092D01*
X004812Y005967D01*
X004907Y005872D01*
X005032Y005820D01*
X005168Y005820D01*
X005293Y005872D01*
X005341Y005920D01*
X006859Y005920D01*
X006907Y005872D01*
X007032Y005820D01*
X007168Y005820D01*
X007293Y005872D01*
X007388Y005967D01*
X007440Y006092D01*
X007440Y006228D01*
X007388Y006353D01*
X007293Y006448D01*
X007168Y006500D01*
X007032Y006500D01*
X006900Y006441D02*
X005300Y006441D01*
X004900Y006441D02*
X003310Y006441D01*
X003310Y006559D02*
X009120Y006559D01*
X009120Y006441D02*
X007300Y006441D01*
X007401Y006322D02*
X009120Y006322D01*
X009120Y006204D02*
X007440Y006204D01*
X007437Y006085D02*
X009120Y006085D01*
X009120Y005967D02*
X007387Y005967D01*
X007235Y005848D02*
X009120Y005848D01*
X009120Y005730D02*
X003310Y005730D01*
X003310Y005848D02*
X004965Y005848D01*
X004813Y005967D02*
X003310Y005967D01*
X003310Y006085D02*
X004763Y006085D01*
X004760Y006204D02*
X003310Y006204D01*
X003310Y006322D02*
X004799Y006322D01*
X005235Y005848D02*
X006965Y005848D01*
X006487Y005470D02*
X005113Y005470D01*
X004990Y005347D01*
X004990Y003973D01*
X005113Y003850D01*
X005287Y003850D01*
X006487Y003850D01*
X006610Y003973D01*
X006610Y005347D01*
X006487Y005470D01*
X006583Y005374D02*
X009120Y005374D01*
X009120Y005256D02*
X006610Y005256D01*
X006610Y005137D02*
X009120Y005137D01*
X009120Y005019D02*
X006610Y005019D01*
X006610Y004900D02*
X009120Y004900D01*
X009120Y004782D02*
X006610Y004782D01*
X006610Y004663D02*
X009120Y004663D01*
X009120Y004545D02*
X006610Y004545D01*
X006610Y004426D02*
X009120Y004426D01*
X009120Y004308D02*
X006610Y004308D01*
X006610Y004189D02*
X009120Y004189D01*
X009120Y004071D02*
X006610Y004071D01*
X006589Y003952D02*
X009120Y003952D01*
X009120Y003834D02*
X004940Y003834D01*
X004940Y003952D02*
X005011Y003952D01*
X004990Y004071D02*
X004940Y004071D01*
X004940Y004189D02*
X004990Y004189D01*
X004990Y004308D02*
X004940Y004308D01*
X004940Y004426D02*
X004990Y004426D01*
X004990Y004545D02*
X004940Y004545D01*
X004917Y004663D02*
X004990Y004663D01*
X004990Y004782D02*
X004818Y004782D01*
X004699Y004900D02*
X004990Y004900D01*
X004990Y005019D02*
X004640Y005019D01*
X004595Y005137D02*
X004990Y005137D01*
X004990Y005256D02*
X004475Y005256D01*
X004125Y005256D02*
X003456Y005256D01*
X003510Y005137D02*
X004005Y005137D01*
X003960Y005019D02*
X003510Y005019D01*
X003510Y004900D02*
X003901Y004900D01*
X003310Y005374D02*
X005017Y005374D01*
X004031Y004420D02*
X003990Y004322D01*
X003990Y004198D01*
X004037Y004084D01*
X004090Y004032D01*
X004090Y003347D01*
X003513Y002770D01*
X002687Y002770D01*
X001710Y003747D01*
X001587Y003870D01*
X001287Y003870D01*
X001249Y003960D01*
X001100Y004109D01*
X000978Y004160D01*
X001100Y004211D01*
X001249Y004360D01*
X001330Y004555D01*
X001330Y004765D01*
X001249Y004960D01*
X001100Y005109D01*
X000978Y005160D01*
X001100Y005211D01*
X001249Y005360D01*
X001330Y005555D01*
X001330Y005765D01*
X001249Y005960D01*
X001100Y006109D01*
X001050Y006130D01*
X001236Y006130D01*
X001330Y006224D01*
X001330Y006380D01*
X001684Y006380D01*
X001820Y006244D01*
X001820Y004904D01*
X001863Y004801D01*
X002163Y004501D01*
X002241Y004423D01*
X002344Y004380D01*
X002690Y004380D01*
X002690Y004119D01*
X002784Y004025D01*
X002890Y004025D01*
X002890Y003388D01*
X002837Y003336D01*
X002790Y003222D01*
X002790Y003098D01*
X002837Y002984D01*
X002924Y002897D01*
X003038Y002850D01*
X003162Y002850D01*
X003276Y002897D01*
X003363Y002984D01*
X003410Y003098D01*
X003410Y003222D01*
X003363Y003336D01*
X003310Y003388D01*
X003310Y004025D01*
X003416Y004025D01*
X003510Y004119D01*
X003510Y004420D01*
X004031Y004420D01*
X003990Y004308D02*
X003510Y004308D01*
X003510Y004189D02*
X003994Y004189D01*
X004051Y004071D02*
X003462Y004071D01*
X003310Y003952D02*
X004090Y003952D01*
X004090Y003834D02*
X003310Y003834D01*
X003310Y003715D02*
X004090Y003715D01*
X004090Y003597D02*
X003310Y003597D01*
X003310Y003478D02*
X004090Y003478D01*
X004090Y003360D02*
X003339Y003360D01*
X003402Y003241D02*
X003984Y003241D01*
X003866Y003123D02*
X003410Y003123D01*
X003371Y003004D02*
X003747Y003004D01*
X003629Y002886D02*
X003247Y002886D01*
X002953Y002886D02*
X002571Y002886D01*
X002453Y003004D02*
X002829Y003004D01*
X002790Y003123D02*
X002334Y003123D01*
X002216Y003241D02*
X002798Y003241D01*
X002861Y003360D02*
X002097Y003360D01*
X001979Y003478D02*
X002890Y003478D01*
X002890Y003597D02*
X001860Y003597D01*
X001742Y003715D02*
X002890Y003715D01*
X002890Y003834D02*
X001623Y003834D01*
X001253Y003952D02*
X002890Y003952D01*
X002738Y004071D02*
X001139Y004071D01*
X001048Y004189D02*
X002690Y004189D01*
X002690Y004308D02*
X001197Y004308D01*
X001277Y004426D02*
X002238Y004426D01*
X002120Y004545D02*
X001326Y004545D01*
X001330Y004663D02*
X002001Y004663D01*
X001883Y004782D02*
X001323Y004782D01*
X001274Y004900D02*
X001822Y004900D01*
X001820Y005019D02*
X001191Y005019D01*
X001033Y005137D02*
X001820Y005137D01*
X001820Y005256D02*
X001145Y005256D01*
X001255Y005374D02*
X001820Y005374D01*
X001820Y005493D02*
X001304Y005493D01*
X001330Y005611D02*
X001820Y005611D01*
X001820Y005730D02*
X001330Y005730D01*
X001296Y005848D02*
X001820Y005848D01*
X001820Y005967D02*
X001243Y005967D01*
X001125Y006085D02*
X001820Y006085D01*
X001820Y006204D02*
X001310Y006204D01*
X001330Y006322D02*
X001742Y006322D01*
X003310Y006678D02*
X009120Y006678D01*
X009120Y005611D02*
X003310Y005611D01*
X003310Y005493D02*
X009120Y005493D01*
X009120Y003715D02*
X004940Y003715D01*
X004940Y003597D02*
X009120Y003597D01*
X009120Y003478D02*
X004940Y003478D01*
X004940Y003360D02*
X009120Y003360D01*
X009120Y003241D02*
X004940Y003241D01*
X004940Y003123D02*
X009120Y003123D01*
X009120Y003004D02*
X004995Y003004D01*
X005455Y002886D02*
X009120Y002886D01*
X009120Y002767D02*
X005524Y002767D01*
X005540Y002649D02*
X009120Y002649D01*
X009120Y002530D02*
X005514Y002530D01*
X005432Y002412D02*
X007520Y002412D01*
X007428Y002378D02*
X007428Y002378D01*
X007736Y002490D01*
X008064Y002490D01*
X008372Y002378D01*
X008372Y002378D01*
X008623Y002167D01*
X008623Y002167D01*
X008787Y001883D01*
X008787Y001883D01*
X008844Y001560D01*
X008844Y001560D01*
X008787Y001237D01*
X008787Y001237D01*
X008623Y000953D01*
X008623Y000953D01*
X008372Y000742D01*
X008372Y000742D01*
X008064Y000630D01*
X007817Y000630D01*
X007736Y000630D01*
X007428Y000742D01*
X007428Y000742D01*
X007177Y000953D01*
X007177Y000953D01*
X007013Y001237D01*
X007013Y001237D01*
X006956Y001560D01*
X006956Y001560D01*
X007013Y001883D01*
X007013Y001883D01*
X007177Y002167D01*
X007177Y002167D01*
X007428Y002378D01*
X007327Y002293D02*
X001183Y002293D01*
X001204Y002315D02*
X001253Y002382D01*
X001291Y002457D01*
X001317Y002536D01*
X001330Y002618D01*
X001330Y002620D01*
X000840Y002620D01*
X000840Y002130D01*
X000842Y002130D01*
X000924Y002143D01*
X001003Y002169D01*
X001078Y002207D01*
X001145Y002256D01*
X001204Y002315D01*
X001268Y002412D02*
X002452Y002412D01*
X002333Y002530D02*
X001315Y002530D01*
X001320Y002767D02*
X002096Y002767D01*
X001978Y002886D02*
X001280Y002886D01*
X001205Y003004D02*
X001859Y003004D01*
X001741Y003123D02*
X001060Y003123D01*
X001131Y003241D02*
X001622Y003241D01*
X001504Y003360D02*
X001249Y003360D01*
X000840Y002649D02*
X002215Y002649D01*
X001015Y002175D02*
X007186Y002175D01*
X007177Y002167D02*
X007177Y002167D01*
X007112Y002056D02*
X000480Y002056D01*
X000480Y001938D02*
X007044Y001938D01*
X007001Y001819D02*
X000480Y001819D01*
X000480Y001701D02*
X006980Y001701D01*
X006960Y001582D02*
X000480Y001582D01*
X000480Y001464D02*
X006973Y001464D01*
X006994Y001345D02*
X000480Y001345D01*
X000480Y001227D02*
X007019Y001227D01*
X007087Y001108D02*
X000480Y001108D01*
X000480Y000990D02*
X007156Y000990D01*
X007274Y000871D02*
X000480Y000871D01*
X000480Y000753D02*
X007416Y000753D01*
X007725Y000634D02*
X000480Y000634D01*
X000480Y000516D02*
X009120Y000516D01*
X009120Y000634D02*
X008075Y000634D01*
X008384Y000753D02*
X009120Y000753D01*
X009120Y000871D02*
X008526Y000871D01*
X008623Y000953D02*
X008623Y000953D01*
X008644Y000990D02*
X009120Y000990D01*
X009120Y001108D02*
X008713Y001108D01*
X008781Y001227D02*
X009120Y001227D01*
X009120Y001345D02*
X008806Y001345D01*
X008827Y001464D02*
X009120Y001464D01*
X009120Y001582D02*
X008840Y001582D01*
X008820Y001701D02*
X009120Y001701D01*
X009120Y001819D02*
X008799Y001819D01*
X008756Y001938D02*
X009120Y001938D01*
X009120Y002056D02*
X008688Y002056D01*
X008614Y002175D02*
X009120Y002175D01*
X009120Y002293D02*
X008473Y002293D01*
X008280Y002412D02*
X009120Y002412D01*
X009120Y000397D02*
X000480Y000397D01*
X000480Y002175D02*
X000585Y002175D01*
X000760Y002175D02*
X000840Y002175D01*
X000840Y002293D02*
X000760Y002293D01*
X000760Y002412D02*
X000840Y002412D01*
X000840Y002530D02*
X000760Y002530D01*
X003748Y002412D02*
X004968Y002412D01*
X004791Y002530D02*
X003867Y002530D01*
X003985Y002649D02*
X004672Y002649D01*
X004554Y002767D02*
X004104Y002767D01*
X004222Y002886D02*
X004471Y002886D01*
X004460Y003004D02*
X004341Y003004D01*
X004459Y003123D02*
X004460Y003123D01*
D15*
X003100Y003160D03*
X004300Y004260D03*
X003100Y007160D03*
D16*
X003100Y005010D01*
X003100Y004310D02*
X003100Y003160D01*
X002600Y002560D02*
X001500Y003660D01*
X000800Y003660D01*
X002600Y002560D02*
X003600Y002560D01*
X004300Y003260D01*
X004300Y004260D01*
D17*
X003100Y004660D02*
X002400Y004660D01*
X002100Y004960D01*
X002100Y006360D01*
X001800Y006660D01*
X000800Y006660D01*
D18*
X004300Y004960D03*
X005100Y006160D03*
X007100Y006160D03*
X005200Y002660D03*
D19*
X005000Y002660D01*
X004700Y002960D01*
X004700Y004560D01*
X004300Y004960D01*
X004000Y004660D01*
X003100Y004660D01*
X005100Y006160D02*
X007100Y006160D01*
M02*
