G75*
G70*
%OFA0B0*%
%FSLAX24Y24*%
%IPPOS*%
%LPD*%
%AMOC8*
5,1,8,0,0,1.08239X$1,22.5*
%
%ADD10C,0.0000*%
%ADD11R,0.0710X0.0789*%
%ADD12R,0.0789X0.0710*%
%ADD13R,0.0474X0.0513*%
%ADD14R,0.0820X0.0820*%
%ADD15C,0.0820*%
%ADD16C,0.1280*%
%ADD17R,0.0395X0.0198*%
%ADD18R,0.0198X0.0395*%
D10*
X000300Y000160D02*
X000300Y009160D01*
X009300Y009160D01*
X009300Y000160D01*
X000300Y000160D01*
X007300Y001560D02*
X007302Y001609D01*
X007308Y001657D01*
X007318Y001705D01*
X007332Y001752D01*
X007349Y001798D01*
X007370Y001842D01*
X007395Y001884D01*
X007423Y001924D01*
X007455Y001962D01*
X007489Y001997D01*
X007526Y002029D01*
X007565Y002058D01*
X007607Y002084D01*
X007651Y002106D01*
X007696Y002124D01*
X007743Y002139D01*
X007790Y002150D01*
X007839Y002157D01*
X007888Y002160D01*
X007937Y002159D01*
X007985Y002154D01*
X008034Y002145D01*
X008081Y002132D01*
X008127Y002115D01*
X008171Y002095D01*
X008214Y002071D01*
X008255Y002044D01*
X008293Y002013D01*
X008329Y001980D01*
X008361Y001944D01*
X008391Y001905D01*
X008418Y001864D01*
X008441Y001820D01*
X008460Y001775D01*
X008476Y001729D01*
X008488Y001682D01*
X008496Y001633D01*
X008500Y001584D01*
X008500Y001536D01*
X008496Y001487D01*
X008488Y001438D01*
X008476Y001391D01*
X008460Y001345D01*
X008441Y001300D01*
X008418Y001256D01*
X008391Y001215D01*
X008361Y001176D01*
X008329Y001140D01*
X008293Y001107D01*
X008255Y001076D01*
X008214Y001049D01*
X008171Y001025D01*
X008127Y001005D01*
X008081Y000988D01*
X008034Y000975D01*
X007985Y000966D01*
X007937Y000961D01*
X007888Y000960D01*
X007839Y000963D01*
X007790Y000970D01*
X007743Y000981D01*
X007696Y000996D01*
X007651Y001014D01*
X007607Y001036D01*
X007565Y001062D01*
X007526Y001091D01*
X007489Y001123D01*
X007455Y001158D01*
X007423Y001196D01*
X007395Y001236D01*
X007370Y001278D01*
X007349Y001322D01*
X007332Y001368D01*
X007318Y001415D01*
X007308Y001463D01*
X007302Y001511D01*
X007300Y001560D01*
X007300Y007760D02*
X007302Y007809D01*
X007308Y007857D01*
X007318Y007905D01*
X007332Y007952D01*
X007349Y007998D01*
X007370Y008042D01*
X007395Y008084D01*
X007423Y008124D01*
X007455Y008162D01*
X007489Y008197D01*
X007526Y008229D01*
X007565Y008258D01*
X007607Y008284D01*
X007651Y008306D01*
X007696Y008324D01*
X007743Y008339D01*
X007790Y008350D01*
X007839Y008357D01*
X007888Y008360D01*
X007937Y008359D01*
X007985Y008354D01*
X008034Y008345D01*
X008081Y008332D01*
X008127Y008315D01*
X008171Y008295D01*
X008214Y008271D01*
X008255Y008244D01*
X008293Y008213D01*
X008329Y008180D01*
X008361Y008144D01*
X008391Y008105D01*
X008418Y008064D01*
X008441Y008020D01*
X008460Y007975D01*
X008476Y007929D01*
X008488Y007882D01*
X008496Y007833D01*
X008500Y007784D01*
X008500Y007736D01*
X008496Y007687D01*
X008488Y007638D01*
X008476Y007591D01*
X008460Y007545D01*
X008441Y007500D01*
X008418Y007456D01*
X008391Y007415D01*
X008361Y007376D01*
X008329Y007340D01*
X008293Y007307D01*
X008255Y007276D01*
X008214Y007249D01*
X008171Y007225D01*
X008127Y007205D01*
X008081Y007188D01*
X008034Y007175D01*
X007985Y007166D01*
X007937Y007161D01*
X007888Y007160D01*
X007839Y007163D01*
X007790Y007170D01*
X007743Y007181D01*
X007696Y007196D01*
X007651Y007214D01*
X007607Y007236D01*
X007565Y007262D01*
X007526Y007291D01*
X007489Y007323D01*
X007455Y007358D01*
X007423Y007396D01*
X007395Y007436D01*
X007370Y007478D01*
X007349Y007522D01*
X007332Y007568D01*
X007318Y007615D01*
X007308Y007663D01*
X007302Y007711D01*
X007300Y007760D01*
D11*
X006351Y007060D03*
X005249Y007060D03*
D12*
X008000Y006111D03*
X008000Y005009D03*
D13*
X006100Y002695D03*
X006100Y002025D03*
X003100Y003925D03*
X003100Y004595D03*
X003100Y005725D03*
X003100Y006395D03*
D14*
X000800Y006660D03*
D15*
X000800Y005660D03*
X000800Y004660D03*
X000800Y003660D03*
X000800Y002660D03*
D16*
X007900Y001560D03*
X007900Y007760D03*
D17*
X006391Y004955D03*
X006391Y004758D03*
X006391Y004562D03*
X006391Y004365D03*
X005209Y004365D03*
X005209Y004562D03*
X005209Y004758D03*
X005209Y004955D03*
D18*
X005505Y005251D03*
X005702Y005251D03*
X005898Y005251D03*
X006095Y005251D03*
X006095Y004069D03*
X005898Y004069D03*
X005702Y004069D03*
X005505Y004069D03*
M02*
